# xmcd CD database file
# 
# Track frame offsets:
# 	150
# 	19706
# 	43343
# 	57843
# 	68374
# 	85544
# 	98215
# 	116138
# 	128091
# 	144481
# 	158152
# 	175560
# 	194498
# 	213991
# 	227161
# 	247616
# 	262815
# 	279908
# 	294392
# 	312080
# 
# Disc length: 4474 seconds
# 
# Submitted via: Nero 6, 3, 1, 17
# 
# Revision: 0
# Processed by: cddbd v1.5.1PL0 Copyright (c) Steve Scherf et al.
#
DISCID=07117814
DTITLE=Homesick James and Snooky Pryor - The Big Bear Sessions Disc 1
DYEAR=1900
DGENRE=
TTITLE0=Highway 51
TTITLE1=Lonesome Train
TTITLE2=Homesick's Original Dust My Broom
TTITLE3=Kissing In The Dark
TTITLE4=Crossroads
TTITLE5=Shake Your Money Maker (studio)
TTITLE6=Careless Love (studio)
TTITLE7=Tin Pan Alley (studio)
TTITLE8=Dust My Broom (studio)
TTITLE9=The Woman I Love
TTITLE10=Drivin' Dog
TTITLE11=Homesick Blues Again
TTITLE12=If I Could Live My Life All Over Again (live)
TTITLE13=Baby Please Set A Date (live)
TTITLE14=Shake Your Money Maker (live)
TTITLE15=Dust My Broom (live)
TTITLE16=Worried About My Baby (live)
TTITLE17=Gotta Move - Can't Stay Here No More (live)
TTITLE18=Tin Pan Alley (live)
TTITLE19=Careless Love (live)
EXTD=
EXTT0=
EXTT1=
EXTT2=
EXTT3=
EXTT4=
EXTT5=
EXTT6=
EXTT7=
EXTT8=
EXTT9=
EXTT10=
EXTT11=
EXTT12=
EXTT13=
EXTT14=
EXTT15=
EXTT16=
EXTT17=
EXTT18=
EXTT19=
PLAYORDER=
